<svg viewBox="0 0 1183 770" xmlns="http://www.w3.org/2000/svg">
<rect y="0.230164" width="891" height="373" fill="#FFE500"/>
<rect x="911" y="0.230164" width="272" height="373" fill="#00B2FF"/>
<rect x="911" y="388" width="272" height="373" fill="#FEC8D3"/>
<rect x="617" y="568" width="272" height="193" fill="#FF4E36"/>
<rect x="617" y="388.23" width="272" height="373" rx="136" fill="#FF4E36"/>
<rect y="388.23" width="597" height="83" fill="#DCDCDC"/>
<rect y="485" width="597" height="83" fill="white"/>
<rect y="582.23" width="597" height="82" fill="#DCDCDC"/>
<rect y="678" width="597" height="83" fill="white"/>
<path d="M56.8621 352.1C88.1871 352.1 106.912 337.05 106.912 310.1C106.912 285.6 93.9621 278.25 71.9121 269.85L64.9121 267.05C48.8121 261.45 43.0371 255.15 43.0371 244.125C43.0371 232.4 49.8621 224.525 64.0371 224.525C66.8371 224.525 69.2871 225.05 71.5621 225.925L96.9371 259.175H99.9121L97.9871 226.625C90.1121 224 80.3121 221.55 64.0371 221.55C31.1371 221.55 17.6621 238.525 17.6621 260.75C17.6621 280.875 27.8121 291.725 47.5871 299.95L54.4121 302.75C72.2621 309.225 79.4371 315.7 79.4371 328.475C79.4371 341.425 71.9121 348.95 56.3371 348.95C53.5371 348.95 50.3871 348.425 47.2371 347.375L19.7621 311.15H16.7871L18.5371 345.8C27.2871 349.65 42.5121 352.1 56.8621 352.1ZM164.672 352.625C194.247 352.625 213.847 333.025 213.847 301.875C213.847 270.9 193.897 251.825 164.497 251.825C135.097 251.825 115.497 270.9 115.497 301.7C115.497 332.85 135.447 352.625 164.672 352.625ZM164.672 254.975C174.647 254.975 179.372 264.075 179.372 301.7C179.372 339.5 174.472 349.475 164.847 349.475C155.047 349.475 149.972 339.675 149.972 301.875C149.972 264.25 155.047 254.975 164.672 254.975ZM227.986 265.125V325.15C227.986 341.6 236.386 352.45 254.761 352.45C266.661 352.45 276.286 346.675 283.461 339.5H284.511V351.75L288.361 352.1L326.161 346.15V343.175L315.836 338.975V252.7L311.986 252.35L273.661 257.95V260.925L284.161 265.125V336C280.486 337.575 276.636 338.8 272.261 338.8C264.561 338.8 260.011 335.825 260.011 325.15V252.7L255.811 252.35L217.486 257.95V260.925L227.986 265.125ZM331.162 257.95V260.925L341.662 265.125V344.4L331.687 347.025V350H386.637V347.025L373.687 344.4V283.325C379.287 281.05 385.762 280.175 394.512 280.175C397.487 280.175 400.637 280.35 402.387 280.875V252C401.337 251.475 399.412 251.3 397.662 251.3C386.812 251.3 378.762 259.175 373.862 280H372.987V252.7L369.837 252.35L331.162 257.95ZM454.137 352.275C471.987 352.275 483.012 344.575 489.312 336V333.025C484.237 335.3 478.287 336.7 470.237 336.7C448.537 336.7 439.262 322.875 439.262 295.575C439.262 269.5 446.962 255.15 460.612 255.15C461.312 255.15 461.837 255.15 462.537 255.325L485.987 287.35H488.962L488.437 254.975C481.612 252.875 470.587 251.825 458.162 251.825C427.012 251.825 407.412 271.075 407.412 301.7C407.412 331.625 422.987 352.275 454.137 352.275ZM587.921 298.725V296.275C587.921 267.75 575.496 252 545.921 252C516.521 252 498.321 271.075 498.321 301.7C498.321 333.025 514.946 352.625 547.321 352.625C566.396 352.625 579.696 344.05 585.121 335.825V333.025C578.646 335.825 571.821 336.875 563.771 336.875C539.271 336.875 531.746 322.35 530.521 298.725H587.921ZM545.221 255.325C553.621 255.325 557.646 263.9 557.646 294L530.521 295.225C530.521 267.575 536.121 255.325 545.221 255.325Z" fill="#041F4A"/>
<path d="M632.4 710.23H645.324V709.618L642.66 709.078V684.958H644.784L649.68 693.274H650.292L650.004 684.274H627.684L627.36 693.274H627.972L633.012 684.958H635.064V709.078L632.4 709.618V710.23ZM651.306 709.618V710.23H661.746V709.618L659.946 709.15V693.454C660.702 693.058 661.53 692.806 662.574 692.806C664.266 692.806 665.13 693.67 665.13 695.614V709.15L663.294 709.618V710.23H673.734V709.618L671.682 709.042V695.254C671.682 691.654 670.17 690.034 666.75 690.034C664.266 690.034 661.746 691.006 660.054 692.734H659.838V681.898L659.01 681.79L651.198 682.942V683.554L653.358 684.418V709.042L651.306 709.618ZM693.154 699.682V699.178C693.154 693.31 690.598 690.07 684.514 690.07C678.466 690.07 674.722 693.994 674.722 700.294C674.722 706.738 678.142 710.77 684.802 710.77C688.726 710.77 691.462 709.006 692.578 707.314V706.738C691.246 707.314 689.842 707.53 688.186 707.53C683.146 707.53 681.598 704.542 681.346 699.682H693.154ZM684.37 690.754C686.098 690.754 686.926 692.518 686.926 698.71L681.346 698.962C681.346 693.274 682.498 690.754 684.37 690.754ZM714.596 710.698C718.052 710.698 721.328 709.978 723.272 709.222V698.71L725.144 698.278V697.666H714.128V698.278L716.504 698.71V709.546C716 709.906 715.28 710.086 714.452 710.086C710.744 710.086 709.124 707.062 709.124 696.91C709.124 687.802 711.356 684.454 715.028 684.454C715.712 684.454 716.36 684.526 716.972 684.85L722.3 692.626H722.912L722.624 684.922C721.112 684.274 718.232 683.842 714.884 683.842C707.504 683.842 700.88 687.406 700.88 697.414C700.88 706.81 706.208 710.698 714.596 710.698ZM727.989 692.77V705.118C727.989 708.502 729.717 710.734 733.497 710.734C735.945 710.734 737.925 709.546 739.401 708.07H739.617V710.59L740.409 710.662L748.185 709.438V708.826L746.061 707.962V690.214L745.269 690.142L737.385 691.294V691.906L739.545 692.77V707.35C738.789 707.674 737.997 707.926 737.097 707.926C735.513 707.926 734.577 707.314 734.577 705.118V690.214L733.713 690.142L725.829 691.294V691.906L727.989 692.77ZM755.55 699.466C751.374 700.258 749.322 702.058 749.322 705.37C749.322 708.79 751.482 710.77 754.65 710.77C757.134 710.77 758.718 709.906 759.834 708.394H760.014C760.59 709.834 761.85 710.698 764.478 710.698C766.134 710.698 767.646 710.266 768.402 709.798V709.294L766.494 708.79V695.974C766.494 691.51 763.398 690.034 758.07 690.034C754.974 690.034 752.634 690.682 750.762 691.258L750.618 697.378H751.23L756.09 690.79C756.342 690.754 756.558 690.718 756.81 690.718C759.006 690.718 759.87 692.014 759.87 696.01V698.638L755.55 699.466ZM758.214 708.178C756.738 708.178 755.694 707.35 755.694 704.146C755.694 701.194 756.45 699.862 758.538 699.682L759.87 699.574V707.494C759.51 707.926 759.042 708.178 758.214 708.178ZM769.253 691.294V691.906L771.413 692.77V709.078L769.361 709.618V710.23H780.665V709.618L778.001 709.078V696.514C779.153 696.046 780.485 695.866 782.285 695.866C782.897 695.866 783.545 695.902 783.905 696.01V690.07C783.689 689.962 783.293 689.926 782.933 689.926C780.701 689.926 779.045 691.546 778.037 695.83H777.857V690.214L777.209 690.142L769.253 691.294ZM793.907 690.106C788.399 690.106 784.763 693.706 784.763 700.762C784.763 707.458 787.895 710.734 792.179 710.734C794.591 710.734 796.067 709.618 797.219 708.358H797.399V710.59L798.011 710.662L806.039 709.762V709.15L803.843 708.466V681.898L803.087 681.79L795.131 682.942V683.554L797.291 684.31V690.718C796.679 690.394 795.491 690.106 793.907 690.106ZM795.455 707.962C792.935 707.962 791.675 705.694 791.675 699.97C791.675 693.598 793.043 691.114 795.167 691.114C796.175 691.114 796.787 691.33 797.291 691.582V707.53C796.895 707.782 796.247 707.962 795.455 707.962ZM812.093 682.078C810.149 682.078 808.637 683.554 808.637 685.462C808.637 687.37 810.149 688.81 812.093 688.81C813.965 688.81 815.585 687.37 815.585 685.462C815.585 683.554 813.965 682.078 812.093 682.078ZM806.765 691.294V691.906L808.961 692.77V709.042L806.909 709.618V710.23H817.565V709.618L815.549 709.042V690.214L814.649 690.142L806.765 691.294ZM824.878 699.466C820.702 700.258 818.65 702.058 818.65 705.37C818.65 708.79 820.81 710.77 823.978 710.77C826.462 710.77 828.046 709.906 829.162 708.394H829.342C829.918 709.834 831.178 710.698 833.806 710.698C835.462 710.698 836.974 710.266 837.73 709.798V709.294L835.822 708.79V695.974C835.822 691.51 832.726 690.034 827.398 690.034C824.302 690.034 821.962 690.682 820.09 691.258L819.946 697.378H820.558L825.418 690.79C825.67 690.754 825.886 690.718 826.138 690.718C828.334 690.718 829.198 692.014 829.198 696.01V698.638L824.878 699.466ZM827.542 708.178C826.066 708.178 825.022 707.35 825.022 704.146C825.022 701.194 825.778 699.862 827.866 699.682L829.198 699.574V707.494C828.838 707.926 828.37 708.178 827.542 708.178ZM838.689 709.618V710.23H849.129V709.618L847.329 709.15V693.454C848.085 693.058 848.913 692.806 849.957 692.806C851.649 692.806 852.513 693.67 852.513 695.614V709.15L850.677 709.618V710.23H861.117V709.618L859.065 709.042V695.254C859.065 691.654 857.553 690.034 854.133 690.034C851.649 690.034 849.129 691.006 847.437 692.734H847.221V690.214L846.429 690.142L838.581 691.294V691.906L840.741 692.77V709.042L838.689 709.618ZM639.744 718.274H627.648V718.886L630.06 719.354V743.114L627.648 743.618V744.23H639.852C646.944 744.23 652.956 740.09 652.956 730.838C652.956 721.946 647.16 718.274 639.744 718.274ZM639.456 743.582H637.656V718.922H639.24C642.948 718.922 644.604 720.866 644.604 731.342C644.604 741.278 643.128 743.582 639.456 743.582ZM672.764 733.682V733.178C672.764 727.31 670.208 724.07 664.124 724.07C658.076 724.07 654.332 727.994 654.332 734.294C654.332 740.738 657.752 744.77 664.412 744.77C668.336 744.77 671.072 743.006 672.188 741.314V740.738C670.856 741.314 669.452 741.53 667.796 741.53C662.756 741.53 661.208 738.542 660.956 733.682H672.764ZM663.98 724.754C665.708 724.754 666.536 726.518 666.536 732.71L660.956 732.962C660.956 727.274 662.108 724.754 663.98 724.754ZM683.948 731.306L682.832 730.802C680.42 729.686 679.592 729.11 679.592 727.346C679.592 725.726 680.456 724.61 682.4 724.61C682.796 724.61 683.228 724.682 683.66 724.826L687.584 730.082H688.196L688.016 724.646C686.36 724.178 684.2 723.998 682.22 723.998C677.396 723.998 674.588 726.374 674.588 730.406C674.588 733.718 676.676 735.482 680.276 737.174L681.464 737.714C683.732 738.794 684.596 739.406 684.596 741.026C684.596 742.862 683.588 744.05 681.392 744.05C681.068 744.05 680.672 743.978 680.312 743.87L675.164 737.858H674.552L674.768 743.69C676.676 744.41 679.124 744.698 681.5 744.698C686.756 744.698 689.6 742.25 689.6 738.182C689.6 734.582 687.656 733.034 683.948 731.306ZM696.148 716.078C694.204 716.078 692.692 717.554 692.692 719.462C692.692 721.37 694.204 722.81 696.148 722.81C698.02 722.81 699.64 721.37 699.64 719.462C699.64 717.554 698.02 716.078 696.148 716.078ZM690.82 725.294V725.906L693.016 726.77V743.042L690.964 743.618V744.23H701.62V743.618L699.604 743.042V724.214L698.704 724.142L690.82 725.294ZM711.281 752.294C718.589 752.294 722.189 749.27 722.189 745.058C722.189 741.494 720.065 740.234 715.673 740.234H709.157C708.005 740.234 707.537 739.766 707.537 738.938C707.537 738.362 707.789 737.93 708.149 737.57C709.121 737.75 710.201 737.966 711.461 737.966C716.465 737.966 719.957 735.626 719.957 731.198C719.957 729.074 719.021 727.31 717.113 725.942V725.726L721.685 727.166V723.926L715.349 724.718C714.269 724.358 712.937 724.034 711.461 724.034C706.385 724.034 702.965 726.554 702.965 731.018C702.965 733.862 704.729 736.202 707.357 737.282V737.462C704.729 738.254 703.073 739.91 703.073 742.034C703.073 743.942 704.441 745.094 706.457 745.634V745.814C703.649 746.282 701.741 747.182 701.741 748.694C701.741 751.286 704.945 752.294 711.281 752.294ZM713.801 731.126C713.801 735.77 712.937 737.282 711.461 737.282C709.985 737.282 709.157 735.842 709.157 731.162C709.157 726.158 709.985 724.718 711.461 724.718C712.973 724.718 713.801 726.158 713.801 731.126ZM711.389 751.61C707.897 751.61 706.745 750.242 706.745 748.118C706.745 747.146 706.961 746.498 707.285 745.886H715.097C716.825 745.886 717.401 746.498 717.401 747.758C717.401 750.062 715.421 751.61 711.389 751.61ZM723.025 743.618V744.23H733.465V743.618L731.665 743.15V727.454C732.421 727.058 733.249 726.806 734.293 726.806C735.985 726.806 736.849 727.67 736.849 729.614V743.15L735.013 743.618V744.23H745.453V743.618L743.401 743.042V729.254C743.401 725.654 741.889 724.034 738.469 724.034C735.985 724.034 733.465 725.006 731.773 726.734H731.557V724.214L730.765 724.142L722.917 725.294V725.906L725.077 726.77V743.042L723.025 743.618ZM761.341 744.662C767.785 744.662 771.637 741.566 771.637 736.022C771.637 730.982 768.973 729.47 764.437 727.742L762.997 727.166C759.685 726.014 758.497 724.718 758.497 722.45C758.497 720.038 759.901 718.418 762.817 718.418C763.393 718.418 763.897 718.526 764.365 718.706L769.585 725.546H770.197L769.801 718.85C768.181 718.31 766.165 717.806 762.817 717.806C756.049 717.806 753.277 721.298 753.277 725.87C753.277 730.01 755.365 732.242 759.433 733.934L760.837 734.51C764.509 735.842 765.985 737.174 765.985 739.802C765.985 742.466 764.437 744.014 761.233 744.014C760.657 744.014 760.009 743.906 759.361 743.69L753.709 736.238H753.097L753.457 743.366C755.257 744.158 758.389 744.662 761.341 744.662ZM783.977 745.958L790.493 726.554L792.653 725.114V724.502H786.929V725.114L789.737 726.662L785.597 739.19L780.809 726.05L783.041 725.114V724.502H771.953V725.114L773.681 725.942L782.573 747.974H774.941V748.514L777.065 752.402C780.629 751.646 782.825 749.378 783.977 745.958ZM802.566 731.306L801.45 730.802C799.038 729.686 798.21 729.11 798.21 727.346C798.21 725.726 799.074 724.61 801.018 724.61C801.414 724.61 801.846 724.682 802.278 724.826L806.202 730.082H806.814L806.634 724.646C804.978 724.178 802.818 723.998 800.838 723.998C796.014 723.998 793.206 726.374 793.206 730.406C793.206 733.718 795.294 735.482 798.894 737.174L800.082 737.714C802.35 738.794 803.214 739.406 803.214 741.026C803.214 742.862 802.206 744.05 800.01 744.05C799.686 744.05 799.29 743.978 798.93 743.87L793.782 737.858H793.17L793.386 743.69C795.294 744.41 797.742 744.698 800.118 744.698C805.374 744.698 808.218 742.25 808.218 738.182C808.218 734.582 806.274 733.034 802.566 731.306ZM811.501 725.87V738.65C811.501 742.898 813.409 744.626 817.153 744.626C819.493 744.626 821.473 743.474 822.625 742.25V741.638C822.193 741.746 821.509 741.818 820.825 741.818C818.665 741.818 818.053 740.99 818.053 738.974V725.87H822.409V724.502H818.053V719.57L811.501 720.614V724.502L808.693 725.222V725.87H811.501ZM841.725 733.682V733.178C841.725 727.31 839.169 724.07 833.085 724.07C827.037 724.07 823.293 727.994 823.293 734.294C823.293 740.738 826.713 744.77 833.373 744.77C837.297 744.77 840.033 743.006 841.149 741.314V740.738C839.817 741.314 838.413 741.53 836.757 741.53C831.717 741.53 830.169 738.542 829.917 733.682H841.725ZM832.941 724.754C834.669 724.754 835.497 726.518 835.497 732.71L829.917 732.962C829.917 727.274 831.069 724.754 832.941 724.754ZM843.189 743.618V744.23H853.377V743.618L851.793 743.078V727.526C852.441 727.166 853.161 726.878 854.061 726.878C855.753 726.878 856.473 727.598 856.473 729.398V743.078L854.817 743.618V744.23H864.393V743.618L862.773 743.078V727.49C863.421 727.13 864.213 726.878 865.005 726.878C866.625 726.878 867.453 727.598 867.453 729.398V743.078L865.833 743.618V744.23H875.985V743.618L873.897 743.078V729.29C873.897 725.69 872.133 724.034 868.893 724.034C866.337 724.034 864.357 725.042 862.593 726.842H862.449C861.693 724.754 860.289 724.034 858.021 724.034C855.465 724.034 853.593 725.078 851.901 726.806H851.685V724.214L850.893 724.142L843.081 725.294V725.906L845.241 726.77V743.078L843.189 743.618Z" fill="white"/>
<circle cx="1047.5" cy="239.5" r="119.5" fill="#0084C6"/>
<rect x="911" y="388" width="272" height="194" fill="#BB3B80"/>
</svg>
